<?xml version="1.0" encoding="UTF-8"?>
<svg width="3623px" height="2265px" viewBox="0 0 3623 2265" version="1.1" xmlns="http://www.w3.org/2000/svg" xmlns:xlink="http://www.w3.org/1999/xlink">
    <!-- Generator: Sketch 63 (92445) - https://sketch.com -->
    <title>编组 12</title>
    <desc>Created with Sketch.</desc>
    <g id="页面-1" stroke="none" stroke-width="1" fill="none" fill-rule="evenodd">
        <g id="编组-12">
            <polygon id="路径" fill="#0071E7" fill-rule="nonzero" points="0 0 3623 0 3623 2265 0 2265"></polygon>
            <g id="编组" transform="translate(476.227315, 209.518287)" fill-rule="nonzero">
                <polygon id="路径" stroke="#0071E7" fill="#BBD1FF" points="1135.75279 318.934602 1128.91278 372.025453 1060.4361 364.667337 986.548674 356.261711 922.972305 346.936321 842.576655 334.774991 837.880529 364.003062 836.783064 365.919238 832.85261 362.010239 830.2238 353.272477 826.063644 350.947516 818.253781 361.345965 808.529736 361.550357 786.044476 353.834555 783.926115 359.276495 770.884154 354.703221 761.849214 361.243769 757.408312 344.994596 753.962784 335.720304 745.948741 332.70552 744.289783 328.0556 744.621575 312.598447 738.853506 304.039527 737.807087 285.031061 734.565738 276.216651 730.022746 273.66175 724.305722 280.89212 714.990036 286.07857 708.992265 278.950395 711.595553 264.208614 717.006307 261.47487 716.700038 246.068815 723.642139 231.786916 730.584239 219.983272 718.8184 216.994037 710.395998 206.54449 703.249719 186.514064 698.630159 176.24336 690.820296 168.859695 685.61372 158.129109 687.910739 147.807308 681.121773 130.331782 691.534924 69.3462862 804.931073 92.7747319 919.067373 112.447473 1033.79069 128.364508 1148.97341 140.50029 1139.98951 247.933893"></polygon>
                <polygon id="路径" stroke="#0071E7" fill="#BBD1FF" points="1687.49665 289.910922 1687.87949 290.191961 1690.27859 288.812315 1690.32964 288.991158 1696.78681 290.524099 1700.71727 300.820351 1736.78046 308.766095 1760.97572 317.42721 1772.40977 316.584093 1780.37277 316.66074 1783.43546 326.037228 1793.3892 328.873168 1797.72802 336.716716 1795.6607 341.622126 1794.6398 351.228555 1803.70027 350.921967 1801.53086 360.553945 1807.63072 366.91565 1807.65624 366.813454 1808.75371 367.120042 1808.42191 367.707669 1794.15488 390.114154 1800.38235 396.475859 1827.12985 356.236162 1833.28076 355.418594 1816.20626 402.14774 1810.54028 443.409397 1805.51236 476.904154 1813.37327 504.778128 1813.5264 518.98338 1813.37327 518.98338 1813.39879 519.136674 1780.42381 521.461634 1735.73404 524.757457 1692.01412 527.567849 1687.34351 518.957831 1673.07648 514.180165 1669.83513 505.110266 1667.81886 500.026012 1667.02766 487.839132 1670.57528 483.24031 1664.57751 474.323704 1663.81184 471.181175 1662.35706 464.691726 1661.51482 450.716415 1659.9069 445.989848 1645.30807 438.095202 1634.30791 428.590969 1631.09208 422.459206 1626.24282 418.72905 1612.43519 411.013248 1607.45831 410.681111 1594.9268 399.924976 1595.74352 387.073822 1595.20755 371.258982 1597.81084 356.491652 1588.82694 345.863263 1594.26322 334.928285 1602.73666 329.000913 1612.53728 322.153778 1613.8134 322.153778 1612.05235 289.399942 1622.51655 285.695335 1622.51655 285.695335 1662.10183 271.515632"></polygon>
                <polygon id="路径" stroke="#0071E7" fill="#BBD1FF" points="2196.59253 628.81859 2201.51836 657.816721 2207.36299 651.455017 2213.71808 643.483724 2222.03839 639.574725 2226.78556 632.497648 2240.21036 632.267707 2244.19186 627.106806 2251.79754 621.153886 2266.26876 622.942317 2273.2619 629.968296 2278.18773 636.508843 2275.40579 648.184743 2249.80679 637.300863 2249.29634 653.115702 2244.90649 659.835093 2237.65812 668.956091 2232.47706 677.566109 2228.80183 675.803227 2225.35631 684.79648 2222.29361 692.716674 2221.11958 698.286359 2215.12181 701.684378 2207.69479 698.848437 2200.95686 695.527065 2198.91507 708.710356 2193.04491 720.232962 2192.33028 729.047371 2184.9543 738.040624 2180.53892 749.001151 2182.4531 755.567248 2182.37654 760.95809 2175.94488 766.629971 2169.46219 766.91101 2164.53636 772.046362 2159.04904 770.871107 2158.92142 776.159753 2142.68916 783.773359 2136.53825 780.63083 2123.24107 789.854024 2115.58434 786.353809 2109.61209 781.984928 2106.09 772.582891 2097.05506 772.889479 2091.44012 766.65552 2083.68131 760.217168 2080.18473 751.862641 2073.44681 743.712505 2072.17069 731.781116 2070.51173 726.466921 2081.46085 723.324392 2086.10594 714.484434 2084.88086 701.684378 2089.27072 688.296694 2095.52371 688.756577 2097.08058 695.041634 2100.70477 692.154595 2101.21521 686.354969 2101.39387 675.752129 2109.7397 664.331719 2115.30359 664.740504 2121.02062 662.160053 2125.69122 658.532093 2135.54288 643.483724 2135.28766 637.479706 2137.48258 624.42416 2139.47333 608.788163 2139.26915 595.272735 2136.18094 588.323403 2141.71931 584.439953 2150.75425 636.994275"></polygon>
                <polygon id="路径" stroke="#0071E7" fill="#BBD1FF" points="1414.50875 154.424502 1414.99368 160.224128 1418.51578 168.757499 1418.18398 175.604635 1416.75473 183.116045 1417.11204 194.63865 1417.64801 205.318138 1422.08892 216.12537 1426.75952 228.235603 1428.62266 240.141443 1429.33729 247.167422 1429.41385 255.062068 1430.89415 272.256554 1432.22132 275.47573 1432.60416 288.812315 1434.46729 300.718155 1437.78521 310.222388 1440.26088 319.113445 1440.18432 329.741835 1362.72375 331.658011 1296.62066 329.154208 1213.28993 324.734228 1135.75279 318.934602 1139.98951 247.933893 1148.97341 140.50029 1282.7875 150.055621"></polygon>
                <polygon id="路径" stroke="#0071E7" fill="#BBD1FF" points="2301.89807 954.645163 2290.79581 998.359526 2255.24307 1041.58846 2209.40479 1079.55429 2200.52298 1077.9958 2195.67372 1076.61616 2193.96372 1065.65563 2187.37893 1055.66596 2177.29757 1050.86275 2178.29295 1046.36612 2174.38802 1040.4643 2168.82413 1027.89419 2151.54544 1018.74764 2143.78662 1005.94758 2130.94884 998.359526 2126.55899 991.716782 2107.82552 980.602961 2100.6282 971.252022 2089.11758 954.364124 2080.36339 952.064713 2066.19844 944.323362 2072.24726 932.366423 2076.76473 926.847836 2081.23115 924.471778 2105.22223 910.879703 2148.68693 904.594645 2171.12115 903.649332 2172.3207 908.631389 2176.42981 904.058116 2185.41371 912.514839 2186.40908 919.208681 2238.83215 910.598663"></polygon>
                <polygon id="路径" stroke="#0071E7" fill="#BBD1FF" points="1442.96626 476.418723 1437.35133 476.418723 1437.19819 490.598426 1442.58343 498.339777 1441.53701 504.650383 1439.26551 513.950224 1435.76894 523.454457 1442.65999 529.943907 1442.58343 535.258102 1435.3861 534.414984 1431.71087 531.604593 1429.79669 526.75028 1418.10742 521.793772 1407.15829 514.180165 1391.89588 514.512303 1381.73796 514.103518 1378.01168 516.683969 1362.41748 511.676362 1351.59597 504.037207 1266.22344 500.664737 1202.41737 496.883483 1119.46948 490.419583 1128.91278 372.025453 1135.75279 318.934602 1213.28993 324.734228 1296.62066 329.154208 1362.72375 331.658011 1440.18432 329.741835 1439.41864 338.224107 1430.23057 344.688008 1427.95907 352.582653 1431.94057 361.627004 1439.08685 366.225827 1443.8085 422.050422"></polygon>
                <polygon id="路径" stroke="#0071E7" fill="#BBD1FF" points="2523.63693 365.254964 2531.65097 394.994016 2553.82996 420.645226 2571.49148 417.017266 2561.20594 397.957702 2577.28507 406.669915 2578.61224 423.557813 2553.03876 440.777849 2532.5953 445.40222 2529.04768 437.200987 2520.67632 432.627713 2513.50452 418.831246 2496.09823 424.298735 2456.87025 433.419733 2424.55886 440.650104 2423.6911 399.592839 2458.09533 391.621546 2508.09377 378.540451 2510.82467 371.821061 2518.4814 365.587101"></polygon>
                <path d="M1923.04314,270.212633 L1923.04314,270.212633 L1936.62107,270.28928 L1936.62107,270.28928 L1932.28226,276.702082 L1955.32901,297.166842 L1920.46538,307.003213 L1919.08716,306.901016 L1886.57159,304.601605 L1856.27647,319.726621 L1829.19717,327.80011 L1808.75371,367.094493 L1807.65624,366.787905 L1807.63072,366.890101 L1801.53086,360.528396 L1803.70027,350.896418 L1794.6398,351.203006 L1795.6607,341.596577 L1797.72802,336.691167 L1793.3892,328.847619 L1783.46098,326.011679 L1780.39829,316.635191 L1772.43529,316.558544 L1760.97572,317.42721 L1736.80598,308.766095 L1700.71727,300.794802 L1696.78681,290.49855 L1690.35516,288.991158 L1690.30412,288.812315 L1687.87949,290.166412 L1687.49665,289.885373 L1687.85396,290.140863 L1717.86834,273.227416 L1748.49525,251.89399 L1781.90411,229.589701 L1771.82275,261.500419 L1795.12473,266.942359 L1825.4709,286.436256 L1859.722,269.75275 L1898.414,260.146321 L1908.7761,275.399082 L1921.30762,276.216651 L1923.04314,270.212633 Z M2039.2978,462.724452 L2039.2978,462.724452 L2038.35347,463.644216 L2023.09106,498.186483 L2016.60836,519.647654 L2016.60836,519.647654 L2005.02118,543.893668 L2005.02118,543.893668 L1988.86548,546.627413 L1969.26426,549.207863 L1947.26393,552.427039 L1946.67691,547.930413 L1906.14729,553.014666 L1859.67095,557.715685 L1859.67095,557.715685 L1859.67095,557.715685 L1867.5829,548.824628 L1882.0286,518.855635 L1879.09352,480.63431 L1861.30439,446.373083 L1860.81946,421.616088 L1868.62932,392.055879 L1876.7965,371.463374 L1891.65055,355.725182 L1897.72489,374.708099 L1901.6043,345.275635 L1909.89909,338.300754 L1912.91074,315.587681 L1948.84632,322.792503 L1982.02547,341.238891 L1989.04414,366.992297 L1988.96757,393.818761 L1969.28978,420.03205 L1973.37337,434.26285 L1981.74473,433.624125 L2004.02581,404.651543 L2020.23255,408.177307 L2032.71302,440.420163 L2038.35347,463.669765 L2039.2978,462.724452 Z" id="形状" stroke="#0071E7" fill="#BBD1FF"></path>
                <polygon id="路径" stroke="#0071E7" fill="#BBD1FF" points="1714.03997 204.168432 1714.01445 204.193981 1675.06723 226.140584 1648.19211 251.127519 1622.26132 277.110866 1622.51655 285.695335 1612.05235 289.399942 1613.8134 322.153778 1612.53728 322.153778 1602.73666 329.000913 1594.26322 334.928285 1588.82694 345.863263 1597.81084 356.491652 1595.20755 371.258982 1595.74352 387.073822 1594.9268 399.924976 1607.45831 410.681111 1612.43519 411.013248 1626.24282 418.72905 1631.09208 422.459206 1634.30791 428.590969 1645.30807 438.095202 1659.9069 445.989848 1661.51482 450.716415 1662.35706 464.691726 1663.81184 471.181175 1608.3516 472.637469 1546.63837 474.860233 1489.18738 476.469821 1442.96626 476.418723 1443.8085 422.050422 1439.08685 366.225827 1431.94057 361.627004 1427.95907 352.582653 1430.23057 344.688008 1439.41864 338.224107 1440.18432 329.741835 1440.26088 319.113445 1437.78521 310.222388 1434.46729 300.718155 1432.60416 288.812315 1432.22132 275.47573 1430.89415 272.256554 1429.41385 255.062068 1429.33729 247.167422 1428.62266 240.141443 1426.75952 228.235603 1422.08892 216.12537 1417.64801 205.318138 1417.11204 194.63865 1416.75473 183.116045 1418.18398 175.604635 1418.51578 168.757499 1414.99368 160.224128 1414.50875 154.424502 1494.72575 154.654443 1494.59813 131.992468 1507.6401 131.532586 1514.93951 163.826539 1527.2158 173.611812 1554.5248 176.626595 1594.67158 184.725633 1633.44015 201.332492 1664.78169 192.007101 1714.01445 204.168432"></polygon>
                <polygon id="路径" stroke="#0071E7" fill="#BBD1FF" points="1663.81184 471.181175 1664.57751 474.323704 1670.57528 483.24031 1667.02766 487.839132 1667.81886 500.026012 1669.83513 505.110266 1673.07648 514.180165 1687.34351 518.957831 1692.01412 527.567849 1694.77054 531.834534 1700.02816 534.491631 1702.45279 540.623395 1709.49698 544.838982 1714.26968 549.56555 1712.94251 565.278193 1705.74519 578.895817 1703.09085 583.23915 1693.36681 587.173698 1678.58932 590.878305 1675.22036 601.046812 1680.88634 605.2624 1683.2344 614.127907 1678.05335 624.475258 1675.6032 633.417413 1664.75616 642.615058 1664.39885 653.217898 1658.12033 648.695723 1649.23853 639.70247 1601.07771 642.921646 1550.3136 644.812273 1510.75383 645.578743 1471.1175 645.834233 1468.18242 635.333589 1469.4075 624.960689 1468.43765 614.971025 1463.92018 598.236421 1461.03614 591.312638 1457.89688 589.422011 1457.59061 576.008779 1454.88524 566.40235 1447.04985 555.441823 1447.17746 550.638608 1444.47209 541.057728 1442.58343 535.258102 1442.65999 529.943907 1435.76894 523.454457 1439.26551 513.950224 1441.53701 504.650383 1442.58343 498.339777 1437.19819 490.598426 1437.35133 476.418723 1442.96626 476.418723 1489.18738 476.469821 1546.63837 474.860233 1608.3516 472.637469"></polygon>
                <polygon id="路径" stroke="#0071E7" fill="#BBD1FF" points="2070.51173 726.466921 2072.17069 731.781116 2073.44681 743.712505 2080.18473 751.862641 2083.68131 760.217168 2091.44012 766.65552 2097.05506 772.889479 2106.09 772.582891 2090.41923 792.434475 2077.12204 801.274433 2076.68816 806.077648 2072.70666 812.848137 2061.09396 821.509252 2057.75052 827.666565 2048.7411 832.571975 2035.85227 837.656229 2004.76596 843.711345 1963.6238 846.317345 1950.37766 848.591207 1923.57911 849.970854 1896.3722 852.39801 1871.3347 854.595225 1842.41779 858.938558 1840.68226 856.434754 1831.46867 857.380068 1832.413 866.449968 1765.79946 871.227633 1775.80425 864.380497 1782.82292 859.015205 1781.24053 849.996403 1782.26143 844.094581 1779.81127 835.484563 1782.51665 829.633839 1795.04816 831.805505 1806.63534 836.251033 1812.30132 830.987936 1809.46833 818.520018 1819.47313 812.797039 1827.1809 807.891628 1822.79104 802.781825 1827.28299 794.299553 1826.59388 790.032867 1832.6427 791.00373 1832.54061 784.590927 1844.71481 787.988946 1853.9284 780.758575 1868.8335 788.193338 1871.74306 782.240418 1881.69681 775.699871 1892.18652 781.473948 1896.57638 774.524616 1903.28878 762.209991 1906.88744 768.954931 1916.66253 772.889479 1924.75314 754.647483 1930.98062 752.118131 1935.80435 741.540839 1941.67451 736.58433 1941.34272 725.419411 1952.2408 726.23698 1958.67245 720.309609 1966.22709 719.287648 1967.63082 714.791022 1962.55186 703.498358 1964.77231 700.458025 1980.26443 699.870398 1988.89101 704.392573 2002.51998 715.812982 2012.57582 718.597825 2020.13046 722.302432 2030.62018 719.23655 2038.99153 721.433765 2048.17961 716.91159 2056.55096 714.688826 2061.29814 722.200236"></polygon>
                <polygon id="路径" stroke="#0071E7" fill="#BBD1FF" points="1947.26393 552.452588 1953.54244 604.547027 1960.12723 660.576014 1964.77231 700.458025 1962.55186 703.498358 1967.63082 714.791022 1966.22709 719.287648 1958.67245 720.309609 1952.2408 726.23698 1941.34272 725.419411 1941.67451 736.58433 1935.80435 741.540839 1930.98062 752.118131 1924.75314 754.647483 1916.66253 772.889479 1906.88744 768.954931 1903.28878 762.209991 1896.57638 774.524616 1892.18652 781.473948 1881.69681 775.699871 1871.74306 782.240418 1868.8335 788.193338 1853.9284 780.758575 1844.71481 787.988946 1832.54061 784.590927 1832.6427 791.00373 1826.59388 790.032867 1827.02776 778.229223 1832.03016 762.158893 1840.29943 748.720112 1842.69854 738.858193 1846.16959 735.000292 1845.78675 727.207842 1842.49436 717.575864 1838.41077 713.692414 1842.00943 697.162202 1835.833 630.351531 1829.63105 563.464213 1829.63105 563.464213 1833.96987 566.989977 1848.64526 565.252644 1859.67095 557.741234 1859.67095 557.741234 1906.14729 553.040215 1946.67691 547.955962"></polygon>
                <polygon id="路径" stroke="#0071E7" fill="#BBD1FF" points="1442.58343 535.258102 1444.47209 541.057728 1447.17746 550.638608 1447.04985 555.441823 1454.88524 566.40235 1457.59061 576.008779 1457.89688 589.422011 1461.03614 591.312638 1463.92018 598.236421 1468.43765 614.971025 1469.4075 624.960689 1468.18242 635.333589 1471.1175 645.834233 1472.01079 650.611899 1479.48886 659.758446 1486.40544 667.142111 1492.27559 679.482285 1430.97072 679.482285 1328.57474 677.412815 1270.74091 675.087854 1193.05064 670.667875 1192.97408 670.667875 1193.07617 668.802797 1196.93005 612.646065 1109.56678 605.850027 1119.46948 490.419583 1202.41737 496.883483 1266.22344 500.664737 1351.59597 504.037207 1362.41748 511.676362 1378.01168 516.683969 1381.73796 514.103518 1391.89588 514.512303 1407.15829 514.180165 1418.10742 521.793772 1429.79669 526.75028 1431.71087 531.604593 1435.3861 534.414984"></polygon>
                <path d="M2278.18773,636.508843 L2285.02774,637.12202 L2291.76566,640.162352 L2289.77491,646.932841 L2299.80523,648.414684 L2309.37614,653.013506 L2314.07227,657.101349 L2314.55719,660.473818 L2314.73585,665.225935 L2308.3042,672.149718 L2305.87957,685.843989 L2312.43883,687.683518 L2319.17675,683.697872 L2323.46452,691.132635 L2358.50681,716.732747 L2373.15669,741.872976 L2374.04997,743.405917 L2394.97836,775.623224 L2346.07739,786.660398 L2297.76344,797.161042 L2206.21448,814.227783 L2128.09033,824.856173 L2104.86492,829.633839 L2035.85227,837.656229 L2048.76662,832.546426 L2057.77604,827.641016 L2061.09396,821.458154 L2072.70666,812.822588 L2076.71368,806.052099 L2077.14756,801.248884 L2090.44475,792.408926 L2106.09,772.531793 L2109.63762,781.93383 L2115.58434,786.302711 L2123.26659,789.802926 L2136.56378,780.579732 L2142.71468,783.696712 L2158.94695,776.083106 L2159.07456,770.79446 L2164.56188,771.944166 L2169.48771,766.808814 L2175.97041,766.527775 L2182.42758,760.855894 L2182.50415,755.465052 L2180.53892,749.001151 L2184.92878,738.040624 L2192.33028,729.047371 L2193.04491,720.232962 L2198.91507,708.710356 L2200.95686,695.527065 L2207.69479,698.848437 L2215.09629,701.684378 L2221.11958,698.286359 L2222.29361,692.691125 L2225.35631,684.79648 L2228.77631,675.777678 L2232.45154,677.54056 L2237.63259,668.930542 L2244.88096,659.809544 L2249.27082,653.090153 L2249.78127,637.275314 L2275.38027,648.159194 L2278.18773,636.508843 Z M2378.61849,737.401899 L2383.23805,738.730448 L2398.24524,687.862361 L2388.06179,691.107086 L2385.43298,695.757006 L2378.61849,737.401899 Z" id="形状" stroke="#0071E7" fill="#BBD1FF"></path>
                <polygon id="路径" stroke="#0071E7" fill="#BBD1FF" points="2458.09533 391.621546 2423.6911 399.592839 2413.58422 352.710398 2407.61197 353.783457 2406.31032 351.841732 2406.84629 343.001773 2399.36822 329.205306 2400.49121 316.507446 2396.07583 308.459506 2390.84373 291.954843 2390.61403 284.26459 2388.52119 272.61424 2462.10235 252.992597 2462.17892 253.018146 2461.71952 269.599456 2466.90057 276.829827 2467.23236 284.239041 2460.00951 293.232294 2452.96532 298.061058 2453.09293 303.886233 2454.59876 313.186074 2453.34816 327.80011 2451.33189 333.599736 2449.85159 346.016557 2451.99547 359.65973 2451.66368 363.517631 2454.57324 378.514902 2453.24607 386.665038"></polygon>
                <polygon id="路径" stroke="#0071E7" fill="#BBD1FF" points="2358.12398 595.528225 2377.62311 666.809974 2407.17809 660.013936 2410.85332 664.536112 2398.21971 687.862361 2388.06179 691.107086 2385.43298 695.782555 2356.69472 673.861502 2345.41381 631.833374 2342.52977 653.345644 2353.86173 702.195358 2323.46452 691.132635 2319.17675 683.723421 2312.43883 687.709067 2305.87957 685.843989 2308.3042 672.149718 2314.76137 665.225935 2314.58272 660.473818 2319.25332 654.21431 2312.38779 649.53884 2309.37614 653.013506 2299.83075 648.414684 2289.80044 646.932841 2291.76566 640.162352 2285.05327 637.096471 2278.18773 636.508843 2273.2619 629.968296 2266.26876 622.942317 2251.79754 621.153886 2244.19186 627.106806 2240.21036 632.267707 2226.78556 632.497648 2222.03839 639.574725 2213.71808 643.483724 2207.36299 651.455017 2201.51836 657.816721 2196.59253 628.81859 2237.35185 621.179435 2251.23605 618.343495 2282.27132 611.828496 2319.71272 604.189341"></polygon>
                <path d="M986.574197,1474.82308 L978.815378,1475.07857 L974.348953,1468.99791 L972.051935,1457.88409 L977.768959,1455.89126 L986.140315,1457.21981 L994.588239,1464.55238 L994.154358,1468.71687 L986.574197,1474.82308 Z M1031.31501,1547.10124 L1029.63053,1555.9923 L1021.99933,1552.49209 L1020.41694,1546.28368 L1017.7626,1545.05732 L1016.53753,1544.80183 L1011.63722,1540.63734 L1014.31708,1524.54146 L1020.59559,1528.62931 L1030.1665,1529.49797 L1027.61426,1543.14115 L1031.31501,1547.10124 Z M1060.51267,1591.02 L1051.47773,1590.56012 L1036.52159,1574.82192 L1041.98339,1571.21951 L1060.51267,1591.02 Z M1061.50805,1599.9877 L1062.4779,1608.85321 L1070.9003,1612.9666 L1075.9027,1627.63174 L1073.58016,1631.02975 L1067.58238,1631.1064 L1054.36177,1623.4417 L1057.98595,1613.0177 L1053.34087,1607.95899 L1054.31072,1600.0899 L1058.39431,1598.19927 L1061.50805,1599.9877 Z M1040.22234,1713.91076 L1031.79994,1717.28322 L1024.95993,1704.73866 L1034.83711,1691.19768 L1040.57966,1670.70737 L1058.36879,1666.61953 L1060.48715,1657.88177 L1064.23895,1654.5604 L1066.4594,1655.19912 L1082.64062,1686.59886 L1083.32972,1695.10668 L1080.01181,1701.1618 L1082.58957,1704.22768 L1081.23688,1709.08199 L1083.35525,1718.76507 L1066.58701,1719.88922 L1054.2852,1714.49838 L1040.22234,1713.91076 Z" id="形状" stroke="#0071E7" fill="#BBD1FF"></path>
                <polygon id="路径" stroke="#0071E7" fill="#BBD1FF" points="2496.09823 424.298735 2504.77585 454.804257 2504.44406 463.695314 2486.57836 471.538861 2462.74041 480.787604 2432.98126 502.504266 2429.73991 496.014817 2437.60082 488.196818 2433.05783 484.26227 2424.55886 440.650104 2456.87025 433.419733"></polygon>
                <polygon id="路径" stroke="#0071E7" fill="#BBD1FF" points="2314.58272 660.473818 2314.09779 657.101349 2309.37614 653.013506 2312.38779 649.53884 2319.25332 654.21431"></polygon>
                <polygon id="路径" stroke="#0071E7" fill="#BBD1FF" points="2423.6911 399.592839 2424.55886 440.650104 2433.05783 484.26227 2437.60082 488.196818 2429.73991 496.014817 2432.98126 502.504266 2491.12135 479.35686 2506.51138 486.587231 2451.33189 519.085576 2424.09946 526.060457 2422.41498 506.617657 2384.41208 492.284661 2376.60222 489.934151 2368.46056 487.711387 2363.78996 480.148879 2363.45817 473.65943 2357.23069 469.724881 2346.00082 462.979942 2288.65193 475.677802 2226.96422 488.477858 2160.70799 501.047972 2157.90053 485.56527 2187.83834 444.814593 2186.00072 439.500398 2185.9752 439.347104 2177.14444 423.941049 2197.48581 412.597287 2230.56288 408.202856 2265.55413 405.826798 2292.50581 380.328882 2285.18088 358.765515 2278.57057 350.947516 2278.39191 350.896418 2278.41743 350.870869 2278.59609 350.947516 2311.90286 302.710978 2327.6502 287.994746 2388.52119 272.61424 2390.61403 284.26459 2390.84373 291.954843 2396.07583 308.459506 2400.49121 316.507446 2399.36822 329.205306 2406.84629 343.001773 2406.31032 351.841732 2407.61197 353.783457 2413.58422 352.710398"></polygon>
                <polygon id="路径" stroke="#0071E7" fill="#BBD1FF" points="2422.41498 506.617657 2414.45198 537.63416 2425.80946 537.455317 2428.33618 579.841131 2406.94838 630.862511 2400.26151 617.142691 2389.95045 616.478417 2376.04072 604.138243 2372.33997 605.645635 2368.71579 595.042794 2373.82027 587.659129 2381.52805 580.428758 2383.82506 576.187622 2392.34955 566.300154 2396.45867 558.839842 2379.43521 547.444981 2377.29132 541.645355 2372.21236 540.981081 2370.29818 531.860083 2373.69266 523.786595 2369.68564 516.965008 2375.35162 510.398911 2379.81804 496.014817 2384.41208 492.284661"></polygon>
                <polygon id="路径" stroke="#0071E7" fill="#BBD1FF" points="654.374268 60.8640137 637.350808 133.985291 619.791378 213.698214 621.373768 223.227996 618.668391 233.268759 537.047665 213.570469 521.376893 215.793233 511.98464 210.657882 503.077312 213.187234 486.768481 215.461096 469.20905 209.814764 458.974556 211.858685 450.169318 211.526548 444.809608 206.825529 431.461378 200.387178 422.043602 199.595159 405.122232 201.051452 395.423709 198.343257 387.001308 193.488944 386.465337 184.776731 388.277429 175.093654 384.29593 162.216951 374.010392 155.548659 366.175006 147.551817 354.460212 143.566171 346.216467 141.803289 350.55528 92.1104575 361.606491 36.3625094 410.788211 63.0612288 414.233739 112.166433 428.11794 100.158397 435.851236 52.202898 432.227051 0.363948999 542.790211 32.5046084"></polygon>
                <polygon id="路径" stroke="#1E52D4" fill="#F8F8F8" points="2373.82027 587.659129 2368.71579 595.042794 2372.33997 605.645635 2388.47015 633.953942 2407.17809 660.013936 2377.62311 666.809974 2358.12398 595.528225 2360.44652 590.316227 2363.78996 586.892659"></polygon>
                <path d="M344.45542,1177.99464 L351.780357,1199.53246 L359.48813,1191.96995 L383.606825,1197.99952 L381.437418,1208.04028 L403.00387,1218.23434 L418.495984,1215.42395 L448.433793,1232.10745 L476.865778,1238.16257 L488.121169,1244.47318 L508.360455,1238.13702 L530.845714,1251.90794 L547.231113,1258.193 L547.231113,1258.193 L546.490963,1416.39249 L545.444544,1645.92483 L564.586365,1647.04899 L583.728186,1657.65183 L597.816567,1674.46308 L616.24376,1699.45001 L634.721998,1676.96688 L653.863819,1663.34926 L665.527569,1682.84315 L679.998786,1697.81488 L699.702101,1713.83411 L714.709289,1740.30289 L739.899926,1781.79448 L778.260136,1802.00375 L781.629096,1825.66214 L771.726394,1845.13049 L758.352642,1832.30489 L738.26649,1822.18748 L729.180506,1789.79133 L699.676579,1761.32972 L685.91999,1725.99544 L666.242197,1724.82018 L633.90528,1725.58665 L609.761063,1715.36705 L567.649056,1675.91937 L548.736937,1668.5868 L514.61345,1654.22826 L487.457586,1656.78316 L450.067228,1636.98267 L428.271075,1618.76623 L406.347309,1625.40897 L408.108356,1652.89971 L397.108189,1654.48375 L373.704123,1660.46222 L355.021705,1671.70378 L332.179131,1677.35012 L332.179131,1654.22826 L345.501839,1617.13109 L367.119336,1607.37137 L362.984703,1596.94737 L336.186153,1615.93029 L319.724186,1640.15075 L287.719061,1663.65585 L299.484901,1684.40164 L276.591282,1709.13309 L252.370498,1721.62656 L230.089418,1729.72559 L222.100898,1745.54043 L186.343975,1758.92812 L176.339183,1775.15174 L148.596304,1786.01007 L134.839715,1780.05715 L112.966994,1785.95897 L88.6696418,1793.41929 L68.0985645,1801.31393 L29.0747714,1802.1826 L27.441336,1795.18217 L54.9800363,1784.32384 L78.3330583,1778.26872 L105.412355,1763.55249 L132.108815,1765.28982 L145.661224,1752.31092 L178.763814,1735.90846 L184.81263,1729.31681 L202.37206,1718.94391 L211.253866,1690.91664 L225.495381,1670.32414 L200.534446,1677.55451 L195.455482,1669.76206 L181.954118,1681.38686 L173.097835,1659.46581 L164.879613,1671.90818 L161.663787,1651.44342 L138.693602,1662.14845 L126.672538,1659.28696 L130.37329,1636.4206 L137.187778,1623.36505 L128.152839,1606.86039 L101.583991,1607.8568 L90.3541221,1585.8591 L80.043061,1573.26343 L85.938742,1551.75116 L76.4443986,1531.54189 L89.7160614,1511.58811 L110.261616,1494.16369 L121.950888,1475.97279 L136.932554,1476.89255 L147.422272,1486.24349 L166.283347,1470.86299 L178.227843,1477.30134 L194.38354,1468.12924 L195.251303,1449.29962 L187.262783,1439.92313 L203.469525,1427.45521 L192.90324,1425.51349 L172.766043,1429.85682 L165.390062,1437.31713 L154.134671,1425.18135 L128.918511,1423.21408 L106.841611,1406.76051 L104.493547,1388.85065 L90.6603912,1359.57148 L118.530883,1349.88841 L160.030352,1340.40972 L173.276492,1343.90994 L165.823943,1363.50603 L200.764147,1370.53201 L193.617868,1342.1726 L177.870529,1321.65675 L172.076938,1298.25385 L161.995579,1276.66493 L144.742417,1257.63092 L159.494381,1238.44361 L186.471588,1244.49872 L210.309536,1230.29347 L219.012684,1210.54409 L238.869133,1193.86058 L254.106023,1192.22544 L285.524132,1178.83776 L298.10669,1184.40744 L324.420313,1165.04129 L344.45542,1177.99464 Z M6.20667552,1412.81563 L14.0931059,1423.77615 L26.0376024,1423.49512 L36.4507532,1438.26245 L51.8663,1448.94193 L49.1098777,1452.67209 L33.3625394,1456.50444 L22.974911,1443.80658 L18.7892327,1434.66003 L2.93980468,1431.6197 L0.0557702694,1426.81649 L6.20667552,1412.81563 Z M69.4512532,1594.57131 L56.2051128,1597.10066 L45.8940517,1586.47227 L37.5992625,1572.8802 L57.9151155,1571.93489 L71.7482717,1579.59959 L69.4512532,1594.57131 Z M295.937283,1751.90214 L273.247844,1763.37365 L264.16186,1752.02988 L263.727978,1733.81344 L284.248011,1723.1084 L295.886238,1718.84171 L308.979244,1723.23615 L316.074479,1736.1895 L295.937283,1751.90214 Z" id="形状" stroke="#0071E7" fill="#BBD1FF"></path>
                <polygon id="路径" stroke="#0071E7" fill="#BBD1FF" points="2384.41208 492.284661 2379.81804 496.014817 2375.35162 510.398911 2369.68564 516.965008 2373.69266 523.786595 2370.29818 531.860083 2372.21236 540.981081 2377.29132 541.645355 2379.43521 547.444981 2396.45867 558.839842 2392.34955 566.300154 2383.82506 576.187622 2381.52805 580.428758 2373.82027 587.659129 2363.78996 586.892659 2360.44652 590.316227 2358.12398 595.528225 2319.71272 604.189341 2282.27132 611.828496 2251.23605 618.343495 2237.35185 621.179435 2196.59253 628.81859 2150.75425 636.994275 2141.71931 584.439953 2128.67735 507.869559 2128.67735 507.869559 2157.82396 485.667466 2157.90053 485.56527 2160.70799 501.047972 2226.96422 488.477858 2288.65193 475.677802 2346.00082 462.979942 2357.23069 469.724881 2363.45817 473.65943 2363.78996 480.148879 2368.46056 487.711387 2376.60222 489.934151"></polygon>
                <polygon id="路径" stroke="#0071E7" fill="#BBD1FF" points="2141.71931 584.439953 2136.18094 588.323403 2139.26915 595.272735 2139.47333 608.788163 2137.48258 624.42416 2135.28766 637.479706 2135.54288 643.483724 2125.69122 658.532093 2121.02062 662.160053 2115.30359 664.740504 2109.7397 664.331719 2101.39387 675.752129 2101.21521 686.354969 2100.70477 692.154595 2097.08058 695.041634 2095.52371 688.756577 2089.27072 688.296694 2084.88086 701.684378 2086.10594 714.484434 2081.46085 723.324392 2070.51173 726.466921 2061.29814 722.200236 2056.55096 714.688826 2048.17961 716.91159 2038.99153 721.433765 2030.62018 719.23655 2020.13046 722.302432 2012.57582 718.597825 2002.51998 715.812982 1988.89101 704.392573 1980.26443 699.870398 1964.77231 700.458025 1960.12723 660.576014 1953.54244 604.547027 1947.26393 552.452588 1969.26426 549.233412 1988.86548 546.652962 2005.02118 543.893668 2005.02118 543.893668 2005.02118 543.919217 2033.27451 552.018255 2055.19828 551.762765 2085.18713 539.269297 2108.00418 519.289968 2128.67735 507.869559"></polygon>
                <polygon id="路径" stroke="#0071E7" fill="#BBD1FF" points="2532.5953 445.40222 2504.44406 463.695314 2504.77585 454.804257 2496.09823 424.298735 2513.50452 418.831246 2520.67632 432.627713 2529.04768 437.200987"></polygon>
                <polygon id="路径" stroke="#0071E7" fill="#BBD1FF" points="1813.5264 518.98338 1813.5264 519.136674 1815.21088 534.159494 1829.63105 563.464213 1829.63105 563.464213 1829.63105 563.464213 1835.833 630.351531 1842.00943 697.162202 1838.41077 713.692414 1842.49436 717.575864 1845.78675 727.207842 1846.16959 735.000292 1842.69854 738.858193 1840.29943 748.720112 1832.03016 762.158893 1827.02776 778.229223 1826.59388 790.032867 1827.28299 794.299553 1822.79104 802.781825 1827.1809 807.891628 1819.47313 812.797039 1809.46833 818.520018 1812.30132 830.987936 1806.63534 836.251033 1795.04816 831.805505 1782.51665 829.633839 1779.81127 835.484563 1782.26143 844.094581 1773.37962 835.740053 1768.50484 837.605131 1761.56274 823.834213 1762.63468 815.045352 1758.2193 801.299982 1753.47213 799.920336 1740.60882 788.040044 1735.40225 788.167789 1725.83134 780.605281 1718.83819 772.327401 1721.13521 761.98005 1724.81044 753.293386 1726.6991 742.460604 1717.51102 733.697292 1709.19071 737.963977 1703.90757 735.843409 1702.60593 726.211431 1698.21607 715.429747 1693.9283 713.02814 1683.15784 705.823318 1674.09737 696.44683 1666.08333 684.924225 1661.25959 667.806385 1664.39885 653.217898 1664.75616 642.615058 1675.6032 633.417413 1678.05335 624.475258 1683.2344 614.127907 1680.88634 605.2624 1675.22036 601.046812 1678.58932 590.878305 1693.36681 587.173698 1703.09085 583.23915 1705.74519 578.895817 1712.94251 565.278193 1714.26968 549.56555 1709.49698 544.838982 1702.45279 540.623395 1700.02816 534.491631 1694.77054 531.834534 1692.01412 527.567849 1735.73404 524.757457 1780.42381 521.461634 1813.39879 519.136674 1813.37327 518.98338"></polygon>
                <polygon id="路径" stroke="#0071E7" fill="#BBD1FF" points="1128.91278 372.025453 1119.46948 490.419583 1109.56678 605.850027 1065.79581 601.736636 978.432542 592.079108 934.840234 586.509423 891.273449 580.479856 804.752416 565.457036 814.24676 509.785735 838.084708 367.196689 836.783064 365.919238 837.880529 364.003062 842.576655 334.774991 922.972305 346.936321 986.548674 356.261711 1060.4361 364.667337"></polygon>
                <polygon id="路径" stroke="#0071E7" fill="#BBD1FF" points="1699.23697 1078.76227 1702.9122 1081.9048 1698.90517 1090.54037 1706.66399 1102.11407 1705.03056 1109.42109 1711.94714 1119.07862 1705.41339 1125.41477 1703.72891 1136.52859 1694.61741 1146.10947 1690.76352 1158.55184 1686.93516 1172.83374 1681.14156 1179.65533 1683.87246 1194.11607 1728.23044 1193.60509 1775.5235 1190.71805 1774.75783 1200.50332 1772.07798 1210.2886 1775.77873 1217.44232 1782.87396 1223.75293 1785.34964 1233.28271 1786.70233 1239.00569 1782.54217 1263.73713 1800.96937 1297.69177 1730.47642 1304.61555 1686.24605 1294.95803 1656.15511 1284.22744 1617.0037 1278.09568 1572.69677 1277.61025 1568.30691 1269.97109 1573.28378 1261.25888 1580.71081 1253.33868 1580.55767 1241.66278 1576.75483 1237.85598 1580.8129 1223.77847 1583.87559 1217.36567 1588.16336 1195.87895 1583.49275 1188.0354 1577.36737 1174.90321 1572.77333 1161.48998 1569.78721 1152.54782 1561.49242 1146.16057 1557.12808 1083.94872 1604.42114 1082.79902 1657.81406 1078.81337"></polygon>
                <polygon id="路径" stroke="#0071E7" fill="#BBD1FF" points="2527.00589 350.717575 2522.84573 352.506006 2518.73662 345.250086 2508.85944 339.092774 2508.83392 333.139854 2474.91461 232.604484 2488.46702 218.194841 2495.05181 188.660181 2494.15852 141.496701 2510.7481 90.3731246 2527.89917 101.257004 2550.461 83.8070281 2572.48685 94.5376138 2596.78421 170.494832 2632.49008 193.565591 2640.75935 216.942939 2607.93751 247.014128 2573.25253 272.179907 2537.54665 319.368935"></polygon>
                <polygon id="路径" stroke="#0071E7" fill="#BBD1FF" points="1956.06916 942.02395 1976.79338 1012.20709 1995.06743 1068.23608 2004.25551 1085.48166 2009.79387 1095.29248 2002.92834 1106.43185 2002.39237 1125.18483 2006.37387 1135.76212 2006.37387 1146.16057 2006.16969 1155.8181 2010.20223 1162.84408 2013.49463 1169.38462 1911.58357 1180.98388 1883.2792 1187.03899 1882.89636 1191.53562 1895.65758 1204.61671 1894.10071 1216.34371 1891.19115 1224.67269 1845.78675 1222.19444 1836.80286 1133.46271 1837.61957 1040.02997 1839.71241 964.277141 1835.34808 953.367713 1895.07056 947.823577"></polygon>
                <polygon id="路径" stroke="#0071E7" fill="#BBD1FF" points="1760.05691 899.714784 1759.90378 904.543547 1755.69258 913.02582 1747.80615 919.208681 1746.63212 928.917306 1739.63897 937.016344 1741.29793 953.827595 1736.21896 959.576123 1735.60643 964.226043 1727.36268 969.080356 1727.69447 977.485982 1722.23267 993.377468 1716.87296 997.005428 1708.8334 1005.3855 1704.3925 1017.62348 1694.9492 1038.44593 1694.56636 1052.26794 1700.97249 1067.21412 1699.23697 1078.76227 1657.81406 1078.81337 1604.42114 1082.79902 1557.12808 1083.94872 1559.24645 1050.8883 1547.99105 1050.8883 1538.57328 1051.83361 1535.94447 1048.07791 1536.48044 997.235369 1536.53148 940.772049 1526.1949 879.633259 1583.00783 879.224474 1634.66522 877.589338 1683.94903 875.315475 1737.31643 875.749809 1741.68076 882.648042 1736.80598 889.214139 1731.95672 895.805784 1729.43 901.733156"></polygon>
                <polygon id="路径" stroke="#0071E7" fill="#BBD1FF" points="1835.34808 953.367713 1839.71241 964.277141 1837.61957 1040.02997 1836.80286 1133.46271 1845.78675 1222.19444 1815.87446 1237.80488 1786.70233 1239.00569 1785.34964 1233.28271 1782.87396 1223.75293 1775.77873 1217.44232 1772.07798 1210.2886 1774.75783 1200.50332 1775.5235 1190.71805 1728.23044 1193.60509 1683.87246 1194.11607 1681.14156 1179.65533 1686.93516 1172.83374 1690.76352 1158.55184 1694.61741 1146.10947 1703.72891 1136.52859 1705.41339 1125.41477 1711.94714 1119.07862 1705.03056 1109.42109 1706.66399 1102.11407 1698.90517 1090.54037 1702.9122 1081.9048 1699.23697 1078.76227 1700.97249 1067.21412 1694.56636 1052.26794 1694.9492 1038.44593 1704.3925 1017.62348 1708.8334 1005.3855 1716.87296 997.005428 1722.23267 993.377468 1727.69447 977.485982 1727.36268 969.080356 1735.60643 964.226043 1736.21896 959.576123 1783.07814 956.305849"></polygon>
                <polygon id="路径" stroke="#0071E7" fill="#BBD1FF" points="2190.8755 1159.70155 2204.19821 1200.78436 2231.20094 1245.0608 2261.44502 1284.58513 2265.34995 1307.196 2298.22284 1362.76511 2309.63136 1414.39967 2307.56405 1466.95399 2286.99297 1481.13369 2259.55636 1478.4255 2246.94828 1454.10283 2224.64168 1443.85768 2188.9358 1397.895 2156.98172 1359.08605 2148.15096 1331.74861 2151.74962 1295.00912 2135.21109 1264.19701 2097.28476 1234.04918 2065.50934 1215.88383 2011.65701 1247.43686 1998.07908 1232.51624 1947.4681 1211.64269 1891.19115 1224.67269 1894.10071 1216.34371 1895.65758 1204.61671 1882.89636 1191.53562 1883.2792 1187.03899 1911.58357 1180.98388 2013.49463 1169.38462 2022.98897 1184.07531 2073.65099 1180.24296 2156.01187 1177.25372 2161.26949 1186.7835 2166.93547 1180.60064 2163.94934 1160.51912 2169.64084 1157.60653 2180.18161 1160.31472"></polygon>
                <polygon id="路径" stroke="#1E52D4" fill="#F8F8F8" points="1535.94447 1048.07791 1538.57328 1051.83361 1547.99105 1050.8883 1559.24645 1050.8883 1557.12808 1083.94872 1561.49242 1146.16057 1569.78721 1152.54782 1572.77333 1161.48998 1577.36737 1174.90321 1583.49275 1188.0354 1588.16336 1195.87895 1583.87559 1217.36567 1580.8129 1223.77847 1576.75483 1237.85598 1580.55767 1241.66278 1580.71081 1253.33868 1573.28378 1261.25888 1568.30691 1269.97109 1572.69677 1277.61025 1529.25759 1290.74244 1482.80677 1334.68674 1431.22594 1359.98027 1402.48769 1387.80314 1390.05827 1414.14418 1388.93528 1454.8693 1391.15573 1483.30536 1401.03291 1503.61682 1380.10452 1505.07312 1342.38237 1491.2511 1301.31678 1471.68056 1287.40706 1443.3978 1277.37675 1401.67626 1247.92386 1366.8274 1231.61503 1331.56976 1207.9047 1290.07817 1173.24524 1264.6569 1131.51607 1262.99621 1095.81019 1306.78722 1054.69356 1285.70928 1029.88576 1265.67886 1020.28932 1232.41404 1006.53274 1200.37558 979.402394 1171.73513 955.947282 1150.63165 940.225467 1127.99522 935.759042 1118.10775 935.810086 1113.10015 980.193589 1118.10775 1069.11373 1126.79442 1115.00306 1130.57567 1123.42546 1021.43029 1135.11473 869.899084 1181.74421 873.246005 1228.45025 876.056397 1275.15629 878.381357 1272.68062 935.125717 1270.23047 990.464881 1281.40929 997.184271 1289.0405 1002.24298 1301.82723 998.844957 1308.53963 1011.13403 1324.56772 1015.8095 1338.83475 1019.36082 1361.34554 1018.5688 1367.36883 1032.6974 1382.0187 1027.17881 1395.41798 1036.42756 1408.58755 1040.3621 1416.24428 1032.05868 1423.49265 1041.8184 1439.69939 1038.77807 1446.79463 1041.6651 1454.91076 1039.2635 1463.20555 1034.53693 1473.28691 1034.43473 1490.31037 1034.97126 1501.28501 1030.96007 1514.91399 1036.98963"></polygon>
                <polygon id="路径" stroke="#1E52D4" fill="#F8F8F8" points="618.668391 233.268759 625.482879 246.400952 631.097813 252.558264 631.250948 261.679262 625.508402 268.168712 616.728686 281.556395 606.723894 298.572038 595.391936 307.744134 586.663265 319.266739 584.417292 328.31109 591.12969 333.931873 592.686559 342.107558 585.336099 357.360319 560.834568 458.841002 560.783523 458.994296 436.183027 427.722303 261.482005 375.653413 258.266179 340.395774 289.709811 285.082159 312.501339 223.483486 346.216467 141.803289 354.460212 143.566171 366.175006 147.551817 374.010392 155.548659 384.29593 162.216951 388.277429 175.093654 386.465337 184.776731 387.001308 193.488944 395.423709 198.343257 405.122232 201.051452 422.043602 199.595159 431.461378 200.387178 444.809608 206.825529 450.169318 211.526548 458.974556 211.858685 469.20905 209.814764 486.768481 215.461096 503.077312 213.187234 511.98464 210.657882 521.376893 215.793233 537.047665 213.570469"></polygon>
                <polygon id="路径" stroke="#0071E7" fill="#BBD1FF" points="687.247156 486.893819 630.357663 770.947754 621.50138 816.731587 619.127794 818.21343 614.329578 826.261369 608.510464 822.735605 600.496422 816.884881 590.823421 814.892058 586.203862 821.228213 588.70506 829.86378 586.152817 842.076208 584.825651 853.292225 584.800128 864.891478 579.619075 875.44322 517.727186 786.634849 454.406041 692.793321 390.829672 595.451578 436.183027 427.722303 560.783523 458.994296 560.834568 458.841002"></polygon>
                <polygon id="路径" stroke="#0071E7" fill="#BBD1FF" points="836.783064 365.919238 838.084708 367.196689 814.24676 509.785735 687.247156 486.893819 560.834568 458.841002 585.336099 357.360319 592.686559 342.107558 591.12969 333.931873 584.417292 328.31109 586.663265 319.266739 595.391936 307.744134 606.723894 298.572038 616.728686 281.556395 625.508402 268.168712 631.250948 261.679262 631.097813 252.558264 625.482879 246.400952 618.668391 233.268759 621.373768 223.227996 619.791378 213.698214 637.350808 133.985291 654.374268 60.8640137 691.534924 69.3462862 681.121773 130.331782 687.910739 147.807308 685.61372 158.129109 690.820296 168.859695 698.630159 176.24336 703.249719 186.514064 710.395998 206.54449 718.8184 216.994037 730.584239 219.983272 723.642139 231.786916 716.700038 246.068815 717.006307 261.47487 711.595553 264.208614 708.992265 278.950395 714.990036 286.07857 724.305722 280.89212 730.022746 273.66175 734.565738 276.216651 737.807087 285.031061 738.853506 304.039527 744.621575 312.598447 744.289783 328.0556 745.948741 332.70552 753.962784 335.720304 757.408312 344.994596 761.849214 361.243769 770.884154 354.703221 783.926115 359.276495 786.044476 353.834555 808.529736 361.550357 818.253781 361.345965 826.063644 350.947516 830.2238 353.272477 832.85261 362.010239"></polygon>
                <polygon id="路径" stroke="#0071E7" fill="#BBD1FF" points="891.273449 580.479856 858.502651 810.037745 791.96568 799.434904 704.066436 784.207692 630.357663 770.947754 687.247156 486.893819 814.24676 509.785735 804.752416 565.457036"></polygon>
                <polygon id="路径" stroke="#0071E7" fill="#BBD1FF" points="858.502651 810.037745 811.566905 1135.60883 713.586302 1120.63711 608.99539 1060.08594 541.412 1017.54684 548.124398 1007.53162 554.505006 1008.93682 562.161734 998.640565 555.321723 989.034136 555.398291 980.143079 555.015454 969.591336 567.010996 958.451966 576.148025 933.183992 592.865216 924.42068 586.178339 911.671722 582.29893 899.714784 580.486838 888.958649 579.516985 880.731866 579.619075 875.44322 584.800128 864.891478 584.825651 853.292225 586.152817 842.076208 588.70506 829.86378 586.203862 821.228213 590.823421 814.892058 600.496422 816.884881 608.510464 822.735605 614.329578 826.261369 619.127794 818.21343 621.50138 816.731587 630.357663 770.947754 704.066436 784.207692 791.96568 799.434904"></polygon>
                <polygon id="路径" stroke="#0071E7" fill="#BBD1FF" points="1192.97408 670.667875 1187.48675 759.757286 1181.79525 844.63111 1137.25861 841.233091 1081.87494 836.506523 1003.34243 828.611878 930.501421 819.823017 858.502651 810.037745 891.273449 580.479856 934.840234 586.509423 978.432542 592.079108 1065.79581 601.736636 1109.56678 605.850027 1196.93005 612.646065 1193.07617 668.802797"></polygon>
                <polygon id="路径" stroke="#0071E7" fill="#BBD1FF" points="436.183027 427.722303 390.829672 595.451578 454.406041 692.793321 517.727186 786.634849 579.619075 875.44322 579.516985 880.731866 580.486838 888.958649 582.29893 899.714784 586.178339 911.671722 592.865216 924.42068 576.148025 933.183992 567.010996 958.451966 555.015454 969.591336 555.398291 980.143079 555.321723 989.034136 562.161734 998.640565 554.505006 1008.93682 548.124398 1007.53162 485.849673 1000.30125 430.287346 992.100017 429.419584 969.872375 416.326578 935.764442 374.495318 889.520727 356.195737 882.571395 340.57601 859.551734 305.023268 845.320933 295.707581 833.006309 298.617138 800.814551 270.4659 732.164351 256.147817 643.918057 261.558572 631.526786 247.750938 607.33187 228.53255 550.561961 236.827339 503.653972 223.861945 466.275765 247.776461 423.455617 261.482005 375.653413"></polygon>
                <polygon id="路径" stroke="#0071E7" fill="#BBD1FF" points="1526.06729 853.011186 1485.33349 853.496618 1401.77306 853.215578 1318.18711 851.299402 1271.78733 849.53652 1225.4386 847.237109 1181.79525 844.63111 1187.48675 759.757286 1192.97408 670.667875 1193.05064 670.667875 1270.74091 675.087854 1328.57474 677.412815 1430.97072 679.482285 1492.27559 679.482285 1502.91845 687.12144 1508.71204 686.942597 1510.09025 695.322673 1503.91382 706.129906 1507.38487 711.597395 1513.07637 723.707628 1524.99535 729.021822 1525.45475 791.080377"></polygon>
                <polygon id="路径" stroke="#0071E7" fill="#BBD1FF" points="2394.95284 775.648773 2414.19675 830.757995 2394.00851 879.377769 2352.6877 911.084095 2318.05377 947.976871 2301.89807 954.645163 2238.83215 910.598663 2186.40908 919.208681 2185.41371 912.514839 2176.42981 904.058116 2172.3207 908.631389 2171.12115 903.649332 2148.68693 904.594645 2105.22223 910.879703 2081.23115 924.471778 2076.76473 926.847836 2017.85896 934.410344 2017.32299 922.09572 2026.84286 917.16476 2029.26749 910.573114 2035.01003 902.704018 2044.32572 899.893627 2054.9941 895.729137 2064.99889 889.265237 2068.90382 883.542258 2077.14756 877.665985 2076.30532 873.552593 2086.89713 864.04836 2091.4146 868.544987 2106.95776 855.131754 2115.15046 855.029558 2120.79092 844.298973 2129.82586 840.338876 2128.03929 832.239838 2128.06481 824.856173 2206.18896 814.253332 2297.71239 797.186591 2346.05187 786.685947"></polygon>
                <polygon id="路径" stroke="#0071E7" fill="#BBD1FF" points="1526.1949 879.633259 1536.53148 940.772049 1536.48044 997.235369 1535.94447 1048.07791 1514.91399 1036.98963 1501.28501 1030.96007 1490.31037 1034.97126 1473.28691 1034.43473 1463.20555 1034.53693 1454.91076 1039.2635 1446.79463 1041.6651 1439.69939 1038.77807 1423.49265 1041.8184 1416.24428 1032.05868 1408.58755 1040.3621 1395.41798 1036.42756 1382.0187 1027.17881 1367.36883 1032.6974 1361.34554 1018.5688 1338.83475 1019.36082 1324.56772 1015.8095 1308.53963 1011.13403 1301.82723 998.844957 1289.0405 1002.24298 1281.40929 997.184271 1270.23047 990.464881 1272.68062 935.125717 1275.15629 878.381357 1228.45025 876.056397 1181.74421 873.246005 1135.11473 869.899084 1137.25861 841.233091 1181.79525 844.63111 1225.4386 847.237109 1271.78733 849.53652 1318.18711 851.299402 1401.77306 853.215578 1485.33349 853.496618 1526.06729 853.011186 1526.29699 853.011186"></polygon>
                <polygon id="路径" stroke="#0071E7" fill="#BBD1FF" points="1137.25861 841.233091 1135.11473 869.899084 1123.42546 1021.43029 1115.00306 1130.57567 1069.11373 1126.79442 980.193589 1118.10775 935.810086 1113.10015 935.759042 1118.10775 940.225467 1127.99522 855.159213 1117.29019 851.305326 1141.05077 811.566905 1135.60883 858.502651 810.037745 930.501421 819.823017 1003.34243 828.611878 1081.87494 836.506523"></polygon>
                <polygon id="路径" stroke="#0071E7" fill="#BBD1FF" points="1664.39885 653.217898 1661.25959 667.806385 1666.08333 684.924225 1674.09737 696.44683 1683.15784 705.823318 1693.9283 713.02814 1698.21607 715.429747 1702.60593 726.211431 1703.90757 735.843409 1709.19071 737.963977 1717.51102 733.697292 1726.6991 742.460604 1724.81044 753.293386 1721.13521 761.98005 1718.83819 772.327401 1725.83134 780.605281 1735.40225 788.167789 1740.60882 788.040044 1753.47213 799.920336 1758.2193 801.299982 1762.63468 815.045352 1761.56274 823.834213 1768.50484 837.605131 1773.37962 835.740053 1782.26143 844.094581 1781.24053 849.996403 1782.82292 859.015205 1775.80425 864.380497 1765.79946 871.227633 1764.98274 876.899514 1762.71125 885.356238 1760.05691 899.714784 1729.43 901.733156 1731.95672 895.805784 1736.80598 889.214139 1741.68076 882.648042 1737.31643 875.749809 1683.94903 875.315475 1634.66522 877.589338 1583.00783 879.224474 1526.1949 879.633259 1526.29699 853.011186 1526.06729 853.011186 1525.45475 791.080377 1524.99535 729.021822 1513.07637 723.707628 1507.38487 711.597395 1503.91382 706.129906 1510.09025 695.322673 1508.71204 686.942597 1502.91845 687.12144 1492.27559 679.482285 1486.40544 667.142111 1479.48886 659.758446 1472.01079 650.611899 1471.1175 645.834233 1510.75383 645.578743 1550.3136 644.812273 1601.07771 642.921646 1649.23853 639.70247 1658.12033 648.695723"></polygon>
                <polygon id="路径" stroke="#0071E7" fill="#BBD1FF" points="2527.00589 350.717575 2523.63693 365.254964 2518.4814 365.587101 2510.82467 371.821061 2508.09377 378.540451 2458.09533 391.621546 2453.24607 386.665038 2454.57324 378.514902 2451.66368 363.517631 2451.99547 359.65973 2449.85159 346.016557 2451.33189 333.599736 2453.34816 327.80011 2454.59876 313.186074 2453.09293 303.886233 2452.96532 298.061058 2460.00951 293.232294 2467.23236 284.239041 2466.90057 276.829827 2461.71952 269.599456 2462.17892 253.018146 2462.10235 252.992597 2462.22996 238.046424 2474.91461 232.604484 2508.83392 333.139854 2508.85944 339.092774 2518.73662 345.250086 2522.84573 352.506006"></polygon>
                <polygon id="路径" stroke="#0071E7" fill="#BBD1FF" points="2035.85227 837.656229 2104.8394 829.633839 2128.06481 824.856173 2128.03929 832.239838 2129.82586 840.338876 2120.79092 844.298973 2115.15046 855.029558 2106.95776 855.131754 2091.4146 868.544987 2086.89713 864.04836 2076.30532 873.552593 2077.14756 877.665985 2068.90382 883.542258 2064.99889 889.265237 2054.9941 895.729137 2044.32572 899.893627 2035.01003 902.704018 2029.26749 910.573114 2026.84286 917.16476 2017.32299 922.09572 2017.85896 934.410344 1992.66833 938.191598 1956.06916 942.02395 1895.07056 947.823577 1835.34808 953.367713 1783.07814 956.305849 1736.21896 959.576123 1741.29793 953.827595 1739.63897 937.016344 1746.63212 928.917306 1747.80615 919.208681 1755.69258 913.02582 1759.90378 904.543547 1760.05691 899.714784 1762.71125 885.356238 1764.98274 876.899514 1765.79946 871.227633 1832.413 866.449968 1831.46867 857.380068 1840.68226 856.434754 1842.41779 858.938558 1871.3347 854.595225 1896.3722 852.39801 1923.57911 849.970854 1950.37766 848.591207 1963.6238 846.317345 2004.76596 843.711345"></polygon>
                <polygon id="路径" stroke="#0071E7" fill="#BBD1FF" points="2076.76473 926.847836 2072.24726 932.366423 2066.19844 944.323362 2080.36339 952.064713 2089.11758 954.364124 2100.6282 971.252022 2107.82552 980.602961 2126.55899 991.716782 2130.94884 998.359526 2143.78662 1005.94758 2151.54544 1018.74764 2168.82413 1027.89419 2174.38802 1040.4643 2178.29295 1046.36612 2177.29757 1050.86275 2187.37893 1055.66596 2193.96372 1065.65563 2195.67372 1076.61616 2200.52298 1077.9958 2209.40479 1079.55429 2194.98462 1125.26148 2190.8755 1159.70155 2180.18161 1160.31472 2169.64084 1157.60653 2163.94934 1160.51912 2166.93547 1180.60064 2161.26949 1186.7835 2156.01187 1177.25372 2073.65099 1180.24296 2022.98897 1184.07531 2013.49463 1169.38462 2010.20223 1162.84408 2006.16969 1155.8181 2006.37387 1146.16057 2006.37387 1135.76212 2002.39237 1125.18483 2002.92834 1106.43185 2009.79387 1095.29248 2004.25551 1085.48166 1995.06743 1068.23608 1976.79338 1012.20709 1956.06916 942.02395 1992.66833 938.191598 2017.85896 934.410344"></polygon>
            </g>
            <line x1="909" y1="512" x2="1037.5" y2="512.5" id="直线" stroke="#C81414" stroke-width="5" stroke-linecap="square"></line>
            <rect id="矩形" stroke="#C81414" stroke-width="5" fill="#FFFFFF" x="1039.5" y="450.5" width="369" height="124"></rect>
            <circle id="椭圆形" fill="#C81414" cx="884" cy="512" r="25"></circle>
            <circle id="椭圆形" fill="#FFFFFF" cx="884" cy="512" r="20"></circle>
            <circle id="椭圆形" fill="#C81414" cx="884" cy="512" r="15"></circle>
            <line x1="1747" y1="1314" x2="1875.5" y2="1314.5" id="直线" stroke="#C81414" stroke-width="5" stroke-linecap="square"></line>
            <circle id="椭圆形" fill="#C81414" cx="1722" cy="1314" r="25"></circle>
            <circle id="椭圆形" fill="#FFFFFF" cx="1722" cy="1314" r="20"></circle>
            <circle id="椭圆形" fill="#C81414" cx="1722" cy="1314" r="15"></circle>
            <line x1="2692.25" y1="801.75" x2="2820.75" y2="802.25" id="直线" stroke="#C81414" stroke-width="5" stroke-linecap="square"></line>
            <circle id="椭圆形" fill="#C81414" cx="2845" cy="802" r="25"></circle>
            <circle id="椭圆形" fill="#FFFFFF" cx="2845" cy="802" r="20"></circle>
            <circle id="椭圆形" fill="#C81414" cx="2845" cy="802" r="15"></circle>
            <text id="Oregon" font-family="PingFangHK-Semibold, PingFang HK" font-size="60" font-weight="500" letter-spacing="2.00000003" fill="#000000">
                <tspan x="1073" y="532">Oregon</tspan>
            </text>
            <rect id="矩形" stroke="#C81414" stroke-width="5" fill="#FFFFFF" x="1877.5" y="1252.5" width="369" height="124"></rect>
            <text id="Texas" font-family="PingFangHK-Semibold, PingFang HK" font-size="60" font-weight="500" letter-spacing="2.00000003" fill="#000000">
                <tspan x="1911" y="1334">Texas</tspan>
            </text>
            <rect id="矩形" stroke="#C81414" stroke-width="5" fill="#FFFFFF" x="2321.5" y="741.5" width="369" height="124"></rect>
            <text id="Delaware" font-family="PingFangHK-Semibold, PingFang HK" font-size="60" font-weight="500" letter-spacing="2.00000003" fill="#000000">
                <tspan x="2355" y="823">Delaware</tspan>
            </text>
        </g>
    </g>
</svg>